<mxfile host="Electron" modified="2023-05-16T04:12:06.974Z" agent="Mozilla/5.0 (Windows NT 10.0; Win64; x64) AppleWebKit/537.36 (KHTML, like Gecko) draw.io/21.2.8 Chrome/112.0.5615.165 Electron/24.2.0 Safari/537.36" etag="DWdmhe9WY8F7FlfKcGpc" version="21.2.8" type="device">
  <diagram id="p1WFtV5cTaJLbCV86L4F" name="Page-1">
    <mxGraphModel dx="1122" dy="534" grid="1" gridSize="10" guides="1" tooltips="1" connect="1" arrows="1" fold="1" page="1" pageScale="1" pageWidth="1169" pageHeight="827" math="0" shadow="0">
      <root>
        <mxCell id="0" />
        <mxCell id="1" parent="0" />
        <mxCell id="Lrtluq5l5MD6FJIpUNIz-151" value=":user.php" style="shape=umlLifeline;perimeter=lifelinePerimeter;whiteSpace=wrap;html=1;container=0;collapsible=0;recursiveResize=0;outlineConnect=0;" parent="1" vertex="1">
          <mxGeometry x="890" y="140" width="156.72" height="450" as="geometry" />
        </mxCell>
        <mxCell id="Lrtluq5l5MD6FJIpUNIz-152" value="enter UserID and Product ID" style="html=1;verticalAlign=bottom;endArrow=block;rounded=0;elbow=vertical;" parent="1" edge="1">
          <mxGeometry x="-0.0556" y="3" width="80" relative="1" as="geometry">
            <mxPoint x="210" y="210" as="sourcePoint" />
            <mxPoint x="390" y="210" as="targetPoint" />
            <mxPoint as="offset" />
          </mxGeometry>
        </mxCell>
        <mxCell id="Lrtluq5l5MD6FJIpUNIz-153" value="" style="shape=umlLifeline;participant=umlActor;perimeter=lifelinePerimeter;whiteSpace=wrap;html=1;container=0;collapsible=0;recursiveResize=0;verticalAlign=top;spacingTop=36;outlineConnect=0;fontFamily=Helvetica;fontSize=12;fontColor=default;align=center;strokeColor=default;fillColor=default;size=50;" parent="1" vertex="1">
          <mxGeometry x="155.1" y="175.14" width="46.09" height="404.86" as="geometry" />
        </mxCell>
        <mxCell id="Lrtluq5l5MD6FJIpUNIz-154" value="Individual" style="text;html=1;align=center;verticalAlign=middle;resizable=1;points=[];autosize=1;strokeColor=none;fillColor=none;container=0;movable=1;rotatable=1;deletable=1;editable=1;connectable=1;locked=0;" parent="1" vertex="1">
          <mxGeometry x="150.1" y="140" width="70" height="30" as="geometry" />
        </mxCell>
        <mxCell id="Lrtluq5l5MD6FJIpUNIz-155" value=":generate-ratings-recs.php" style="shape=umlLifeline;perimeter=lifelinePerimeter;whiteSpace=wrap;html=1;container=0;collapsible=0;recursiveResize=0;outlineConnect=0;" parent="1" vertex="1">
          <mxGeometry x="300" y="140" width="199.75" height="440" as="geometry" />
        </mxCell>
        <mxCell id="Lrtluq5l5MD6FJIpUNIz-156" value="" style="html=1;points=[];perimeter=orthogonalPerimeter;container=0;" parent="1" vertex="1">
          <mxGeometry x="392.19" y="394.83000000000004" width="15.37" height="30" as="geometry" />
        </mxCell>
        <mxCell id="Lrtluq5l5MD6FJIpUNIz-158" value="" style="html=1;points=[];perimeter=orthogonalPerimeter;container=0;" parent="1" vertex="1">
          <mxGeometry x="392.19" y="240" width="15.37" height="40" as="geometry" />
        </mxCell>
        <mxCell id="Lrtluq5l5MD6FJIpUNIz-160" value="&lt;font style=&quot;font-size: 11px;&quot;&gt;:execute_command_rating.php&lt;/font&gt;" style="shape=umlLifeline;perimeter=lifelinePerimeter;whiteSpace=wrap;html=1;container=0;collapsible=0;recursiveResize=0;outlineConnect=0;" parent="1" vertex="1">
          <mxGeometry x="580" y="140" width="156.72" height="450" as="geometry" />
        </mxCell>
        <mxCell id="Lrtluq5l5MD6FJIpUNIz-161" value="&lt;font style=&quot;font-size: 14px;&quot;&gt;&lt;b&gt;&lt;u&gt;Generate Ratings (RECS&#39; Data)&lt;/u&gt;&lt;/b&gt;&lt;/font&gt;" style="text;html=1;align=center;verticalAlign=middle;resizable=0;points=[];autosize=1;strokeColor=none;fillColor=none;" parent="1" vertex="1">
          <mxGeometry x="435.56000000000006" y="90" width="230" height="30" as="geometry" />
        </mxCell>
        <mxCell id="Lrtluq5l5MD6FJIpUNIz-163" value="" style="html=1;points=[];perimeter=orthogonalPerimeter;container=0;" parent="1" vertex="1">
          <mxGeometry x="650.1899999999999" y="275.17" width="15.37" height="30" as="geometry" />
        </mxCell>
        <mxCell id="Lrtluq5l5MD6FJIpUNIz-165" value="click generate" style="html=1;verticalAlign=bottom;endArrow=block;rounded=0;elbow=vertical;entryX=-0.377;entryY=0.017;entryDx=0;entryDy=0;entryPerimeter=0;" parent="1" target="Lrtluq5l5MD6FJIpUNIz-158" edge="1">
          <mxGeometry x="-0.012" width="80" relative="1" as="geometry">
            <mxPoint x="201.19" y="240" as="sourcePoint" />
            <mxPoint x="383.38" y="240" as="targetPoint" />
            <mxPoint as="offset" />
          </mxGeometry>
        </mxCell>
        <mxCell id="Lrtluq5l5MD6FJIpUNIz-169" value="" style="html=1;points=[];perimeter=orthogonalPerimeter;container=0;" parent="1" vertex="1">
          <mxGeometry x="650.67" y="354.83" width="15.37" height="40" as="geometry" />
        </mxCell>
        <mxCell id="Lrtluq5l5MD6FJIpUNIz-172" value="" style="html=1;points=[];perimeter=orthogonalPerimeter;container=0;" parent="1" vertex="1">
          <mxGeometry x="960.68" y="305.17" width="15.37" height="54.83" as="geometry" />
        </mxCell>
        <mxCell id="LUFxXE5ldGn6Un585CN7-3" value="$.ajax({POST, command, userid, product,&amp;nbsp;" style="html=1;verticalAlign=bottom;endArrow=block;rounded=0;elbow=vertical;entryX=0.087;entryY=0.101;entryDx=0;entryDy=0;entryPerimeter=0;exitX=1.081;exitY=1.015;exitDx=0;exitDy=0;exitPerimeter=0;" parent="1" source="Lrtluq5l5MD6FJIpUNIz-158" target="Lrtluq5l5MD6FJIpUNIz-163" edge="1">
          <mxGeometry x="-0.0003" y="8" width="80" relative="1" as="geometry">
            <mxPoint x="420" y="280" as="sourcePoint" />
            <mxPoint x="604.81" y="281" as="targetPoint" />
            <mxPoint as="offset" />
          </mxGeometry>
        </mxCell>
        <mxCell id="LUFxXE5ldGn6Un585CN7-4" value="&lt;font style=&quot;font-size: 11px;&quot;&gt;user, type})&lt;/font&gt;" style="text;html=1;align=center;verticalAlign=middle;resizable=0;points=[];autosize=1;strokeColor=none;fillColor=none;" parent="1" vertex="1">
          <mxGeometry x="480" y="280" width="80" height="30" as="geometry" />
        </mxCell>
        <mxCell id="LUFxXE5ldGn6Un585CN7-5" value="createResultsFromRating ($userid, $productid, $rating, 2,&lt;br&gt;&amp;nbsp;$user_id)" style="html=1;verticalAlign=bottom;endArrow=block;rounded=0;entryX=0.086;entryY=0.033;entryDx=0;entryDy=0;entryPerimeter=0;" parent="1" target="Lrtluq5l5MD6FJIpUNIz-172" edge="1">
          <mxGeometry x="0.0379" y="8" width="80" relative="1" as="geometry">
            <mxPoint x="666.04" y="304.17" as="sourcePoint" />
            <mxPoint x="950" y="304" as="targetPoint" />
            <mxPoint as="offset" />
          </mxGeometry>
        </mxCell>
        <mxCell id="LUFxXE5ldGn6Un585CN7-9" value="echo $output" style="html=1;verticalAlign=bottom;endArrow=open;dashed=1;endSize=8;rounded=0;elbow=vertical;" parent="1" edge="1">
          <mxGeometry x="0.2075" y="21" relative="1" as="geometry">
            <mxPoint x="844.74" y="358.99999999999994" as="sourcePoint" />
            <mxPoint x="670" y="359" as="targetPoint" />
            <mxPoint as="offset" />
            <Array as="points">
              <mxPoint x="960.6774407139822" y="359.1886251486324" />
            </Array>
          </mxGeometry>
        </mxCell>
        <mxCell id="LUFxXE5ldGn6Un585CN7-10" value="echo $output" style="html=1;verticalAlign=bottom;endArrow=open;dashed=1;endSize=8;rounded=0;elbow=vertical;" parent="1" edge="1">
          <mxGeometry x="0.0578" y="-5" relative="1" as="geometry">
            <mxPoint x="650.19" y="394.83" as="sourcePoint" />
            <mxPoint x="410.19" y="394.83" as="targetPoint" />
            <mxPoint as="offset" />
            <Array as="points" />
          </mxGeometry>
        </mxCell>
        <mxCell id="LUFxXE5ldGn6Un585CN7-12" value="display rating prediction" style="html=1;verticalAlign=bottom;endArrow=open;dashed=1;endSize=8;rounded=0;elbow=vertical;" parent="1" edge="1">
          <mxGeometry x="0.0578" y="-5" relative="1" as="geometry">
            <mxPoint x="392.19" y="425" as="sourcePoint" />
            <mxPoint x="177.09" y="424.83" as="targetPoint" />
            <mxPoint as="offset" />
            <Array as="points" />
          </mxGeometry>
        </mxCell>
        <mxCell id="AWqXnZZJy_SRb-QyfOH7-3" value="&lt;font style=&quot;font-size: 11px;&quot;&gt;updateRecoForMonth ($user_id)&lt;/font&gt;" style="text;whiteSpace=wrap;html=1;" parent="1" vertex="1">
          <mxGeometry x="736.72" y="305.17" width="180" height="30" as="geometry" />
        </mxCell>
      </root>
    </mxGraphModel>
  </diagram>
</mxfile>
